#!OML:ASF F:\VICON\USERDATA\INSTALL\rory3\rory3.ASF
:FULLY-SPECIFIED
:DEGREES
93
root 0.656532 18.0528 -8.24279 -5.262 -4.26203 1.33335
lowerback 12.032 0.172795 -1.91175
upperback 0.263687 0.0265 0.940673
thorax -6.4823 0.0867161 2.06706
lowerneck -18.1634 -2.51342 -1.47541
upperneck 21.1637 -3.03257 -0.225588
head 9.72945 -1.55649 -0.246395
rclavicle -2.51587e-016 1.35174e-014
rhumerus -31.2068 -20.1474 -77.2701
rradius 24.5704
rwrist 6.25252
rhand -18.0247 23.744
rfingers 7.12502
rthumb 8.24649 -6.07503
lclavicle -2.51587e-016 1.35174e-014
lhumerus -29.8282 0.987006 81.3452
lradius 22.9607
lwrist 6.16869
lhand -26.7146 25.6049
lfingers 7.12502
lthumb -0.14444 55.5846
rfemur -25.9092 -1.78612 19.3867
rtibia 71.4227
rfoot -6.67059 -4.04055
rtoes -0.652263
lfemur -2.74954 -0.072829 -26.1467
ltibia 24.3944
lfoot -14.6686 -4.12428
ltoes 4.76478
94
root 0.647876 18.0232 -8.10034 -5.20479 -4.21251 1.24618
lowerback 12.1519 0.158291 -1.95192
upperback 0.390239 0.00176269 0.969915
thorax -6.41413 0.0741873 2.12502
lowerneck -18.563 -2.50702 -1.353
upperneck 21.2163 -3.05419 -0.217788
head 9.82 -1.55404 -0.272892
rclavicle 2.72708e-015 1.35174e-014
rhumerus -31.2098 -20.0025 -77.4719
rradius 24.8795
rwrist 5.784
rhand -18.3637 23.5617
rfingers 7.12502
rthumb 7.91927 -6.26999
lclavicle 2.72708e-015 1.35174e-014
lhumerus -29.0164 0.292779 81.3502
lradius 23.2033
lwrist 6.50554
lhand -27.1161 22.6108
lfingers 7.12502
lthumb -0.532246 52.5899
rfemur -26.8794 -1.75884 19.6764
rtibia 70.1713
rfoot -7.03569 -4.27731
rtoes -1.16187
lfemur -2.44342 0.0344788 -26.0575
ltibia 24.7632
lfoot -15.3796 -4.17392
ltoes 4.38001
95
root 0.639032 18.013 -7.94128 -5.1801 -3.99015 1.23525
lowerback 12.08 0.0662554 -2.01196
upperback 0.486721 -0.128239 0.955902
thorax -6.26463 0.00919066 2.16569
lowerneck -18.6352 -2.54528 -1.33098
upperneck 21.1817 -3.13977 -0.108004
head 9.82304 -1.57856 -0.250713
rclavicle -2.06922e-014 -2.22639e-014
rhumerus -31.41 -20.1463 -77.5184
rradius 25.0822
rwrist 5.70448
rhand -18.4251 23.9939
rfingers 7.12502
rthumb 7.86006 -5.83998
lclavicle -2.06922e-014 -2.22639e-014
lhumerus -28.4266 -0.420466 81.3244
lradius 23.6132
lwrist 7.03593
lhand -27.9331 20.7466
lfingers 7.12502
lthumb -1.32129 50.7223
rfemur -27.5117 -1.86653 19.8425
rtibia 68.6352
rfoot -7.34675 -4.58464
rtoes -0.761391
lfemur -2.00593 0.0530979 -26.0578
ltibia 24.937
lfoot -16.0598 -4.47319
ltoes 3.76938
96
root 0.634395 18.0124 -7.77944 -5.18865 -3.73434 1.51252
lowerback 12.1316 -0.116727 -2.39266
upperback 0.455496 -0.42445 0.96641
thorax -6.30857 -0.123621 2.44422
lowerneck -18.287 -2.51002 -1.5669
upperneck 20.9621 -3.04713 -0.0216011
head 9.68627 -1.5464 -0.162208
rclavicle -2.64197e-014 -1.15295e-014
rhumerus -31.6973 -20.0884 -77.3952
rradius 25.1418
rwrist 5.88492
rhand -18.4286 24.228
rfingers 7.12502
rthumb 7.85665 -5.60598
lclavicle -2.64197e-014 -1.15295e-014
lhumerus -28.1928 -0.618335 81.2832
lradius 24.0727
lwrist 7.14296
lhand -29.652 16.8011
lfingers 7.12502
lthumb -2.98137 46.76
rfemur -28.0278 -2.07055 19.6391
rtibia 66.8907
rfoot -8.10219 -4.4003
rtoes -3.67766
lfemur -1.34841 0.104333 -26.4105
ltibia 24.8889
lfoot -16.6926 -4.45367
ltoes 1.52017
97
root 0.629781 18.0037 -7.62543 -5.08764 -3.57659 1.70913
lowerback 12.1766 -0.282969 -2.80276
upperback 0.420022 -0.697306 1.06348
thorax -6.34951 -0.2425 2.82739
lowerneck -18.1614 -2.39843 -1.6945
upperneck 20.9125 -2.8473 -0.0613609
head 9.64571 -1.46931 -0.125731
rclavicle -1.57785e-015 1.59028e-014
rhumerus -31.7849 -19.6685 -77.3429
rradius 25.1128
rwrist 5.70423
rhand -18.4717 24.0304
rfingers 7.12502
rthumb 7.81504 -5.80517
lclavicle -1.57785e-015 1.59028e-014
lhumerus -27.7724 -0.649559 81.2378
lradius 24.251
lwrist 7.04588
lhand -29.0162 20.8634
lfingers 7.12502
lthumb -2.36735 50.83
rfemur -28.6804 -2.16854 19.5568
rtibia 65.009
rfoot -8.27984 -3.94387
rtoes -12.721
lfemur -0.767944 0.118309 -26.6756
ltibia 24.6715
lfoot -16.9483 -4.17489
ltoes 1.39057
98
root 0.61812 17.9887 -7.47152 -4.9444 -3.38376 1.50759
lowerback 12.2376 -0.389455 -2.77847
upperback 0.354137 -0.830463 1.16853
thorax -6.44336 -0.304121 2.94991
lowerneck -17.8757 -2.41763 -1.7213
upperneck 20.7198 -2.90111 0.0618634
head 9.52811 -1.48314 -0.0806608
rclavicle -2.00027e-015 -2.10712e-014
rhumerus -32.1426 -19.574 -77.2636
rradius 25.2999
rwrist 5.47613
rhand -18.4088 23.9917
rfingers 7.12502
rthumb 7.8758 -5.84159
lclavicle -2.00027e-015 -2.10712e-014
lhumerus -27.2742 -0.916098 81.1118
lradius 24.2857
lwrist 6.74969
lhand -27.7977 25.2212
lfingers 7.12502
lthumb -1.19051 55.1976
rfemur -29.2473 -2.19538 19.9518
rtibia 62.9812
rfoot -8.91978 -4.54732
rtoes -3.93507
lfemur -0.36228 -0.0929659 -26.4792
ltibia 24.4741
lfoot -16.9626 -4.04544
ltoes 3.24777
99
root 0.606083 17.9752 -7.32018 -4.80757 -3.20638 1.35037
lowerback 12.2974 -0.457646 -2.68768
upperback 0.399799 -0.908017 1.19021
thorax -6.42382 -0.34547 2.93541
lowerneck -18.1127 -2.48444 -1.68199
upperneck 20.7179 -3.02183 0.151258
head 9.5729 -1.52472 -0.0754693
rclavicle 1.22625e-014 3.18055e-015
rhumerus -32.4051 -19.6708 -77.3357
rradius 25.6802
rwrist 5.23861
rhand -18.3592 24.1208
rfingers 7.12502
rthumb 7.92368 -5.71067
lclavicle 1.22625e-014 3.18055e-015
lhumerus -26.5671 -1.1844 80.9335
lradius 24.4001
lwrist 6.67725
lhand -27.2015 25.16
lfingers 7.12502
lthumb -0.614736 55.1388
rfemur -29.7425 -2.1616 20.2869
rtibia 60.8054
rfoot -8.93462 -4.59062
rtoes -2.58544
lfemur 0.0294983 -0.197148 -26.3155
ltibia 24.3613
lfoot -17.2025 -4.15605
ltoes 5.00405
100
root 0.597494 17.9641 -7.16854 -4.5925 -3.13671 1.33953
lowerback 12.1373 -0.460328 -2.7021
upperback 0.554359 -0.911182 1.15196
thorax -6.17007 -0.354109 2.89798
lowerneck -18.8314 -2.52648 -1.46027
upperneck 20.9408 -3.10855 0.0503432
head 9.77887 -1.55558 -0.170372
rclavicle 2.83517e-014 -2.78299e-015
rhumerus -32.4384 -19.9162 -77.4487
rradius 25.996
rwrist 5.08106
rhand -18.4687 23.8583
rfingers 7.12502
rthumb 7.81793 -5.9772
lclavicle 2.83517e-014 -2.78299e-015
lhumerus -25.6486 -1.75231 80.8239
lradius 24.5756
lwrist 7.22462
lhand -27.7097 22.2361
lfingers 7.12502
lthumb -1.10556 52.213
rfemur -30.235 -2.08873 20.4197
rtibia 58.4567
rfoot -9.04806 -5.4265
rtoes -3.95951
lfemur 0.464234 -0.268507 -26.362
ltibia 24.1969
lfoot -17.476 -3.93623
ltoes 5.3407
101
root 0.589547 17.9572 -7.00737 -4.30245 -3.12136 1.33916
lowerback 11.8997 -0.514134 -2.84704
upperback 0.526194 -0.991208 1.23799
thorax -6.05733 -0.39 3.0799
lowerneck -18.879 -2.57618 -1.51131
upperneck 20.9513 -3.13437 -0.0613581
head 9.79052 -1.58475 -0.205282
rclavicle -2.23633e-016 -6.36111e-015
rhumerus -32.5772 -19.8072 -77.3593
rradius 26.0078
rwrist 4.9711
rhand -18.6806 23.3469
rfingers 7.12502
rthumb 7.61343 -6.4961
lclavicle -2.23633e-016 -6.36111e-015
lhumerus -25.2099 -2.06952 80.827
lradius 24.9987
lwrist 7.242
lhand -28.017 25.7098
lfingers 7.12502
lthumb -1.40235 55.6849
rfemur -30.7079 -2.00466 20.5456
rtibia 55.9647
rfoot -9.02538 -6.01417
rtoes -6.72695
lfemur 0.876957 -0.410951 -26.4488
ltibia 23.9408
lfoot -17.6162 -3.48059
ltoes 4.91475
102
root 0.579871 17.9635 -6.84249 -4.02052 -3.05901 1.27323
lowerback 11.6983 -0.647808 -2.93671
upperback 0.378729 -1.16834 1.37063
thorax -6.08314 -0.470006 3.29801
lowerneck -18.456 -2.53354 -1.66604
upperneck 20.7639 -3.04049 -0.0452377
head 9.64887 -1.55374 -0.153793
rclavicle -1.84746e-014 -2.10712e-014
rhumerus -32.9342 -19.5819 -77.1814
rradius 26.0068
rwrist 4.93711
rhand -18.8437 23.2185
rfingers 7.12502
rthumb 7.45598 -6.63009
lclavicle -1.84746e-014 -2.10712e-014
lhumerus -24.9938 -2.0502 80.7963
lradius 25.3092
lwrist 6.88194
lhand -27.5569 30.3563
lfingers 7.12502
lthumb -0.958004 60.3339
rfemur -31.0653 -1.83698 20.708
rtibia 53.3916
rfoot -8.89197 -6.40026
rtoes -7.86837
lfemur 1.3877 -0.497521 -26.4312
ltibia 23.6062
lfoot -17.7435 -3.13904
ltoes 4.62433
103
root 0.568323 17.9593 -6.68438 -3.82778 -2.94919 1.33087
lowerback 11.5981 -0.742472 -3.05759
upperback 0.33791 -1.30919 1.35062
thorax -6.05704 -0.535984 3.3665
lowerneck -18.3591 -2.46262 -1.60526
upperneck 20.6428 -2.98178 0.0422342
head 9.58822 -1.51187 -0.123128
rclavicle -1.22998e-014 3.18055e-015
rhumerus -33.0521 -19.9192 -77.0564
rradius 25.7613
rwrist 5.26666
rhand -19.2399 23.2134
rfingers 7.12502
rthumb 7.07357 -6.64843
lclavicle -1.22998e-014 3.18055e-015
lhumerus -24.6005 -2.41242 80.6891
lradius 25.3622
lwrist 7.21725
lhand -28.274 27.5395
lfingers 7.12502
lthumb -1.65053 57.5128
rfemur -31.1722 -1.50699 20.6317
rtibia 50.8047
rfoot -8.97593 -6.62981
rtoes -5.48307
lfemur 2.04001 -0.3373 -26.4984
ltibia 23.1683
lfoot -17.841 -3.02666
ltoes 4.5624
104
root 0.554603 17.943 -6.52525 -3.60721 -2.82194 1.47382
lowerback 11.433 -0.798189 -3.24124
upperback 0.300126 -1.40647 1.29669
thorax -5.99373 -0.580209 3.42536
lowerneck -18.2421 -2.47575 -1.55214
upperneck 20.5523 -3.01907 0.0506488
head 9.53436 -1.52453 -0.131726
rclavicle -3.26255e-014 7.95139e-015
rhumerus -33.0775 -20.0617 -77.0323
rradius 25.5327
rwrist 5.21885
rhand -20.0288 22.759
rfingers 7.12502
rthumb 6.31199 -7.12693
lclavicle -3.26255e-014 7.95139e-015
lhumerus -24.2172 -2.78189 80.5886
lradius 25.493
lwrist 7.62329
lhand -29.3727 24.462
lfingers 7.12502
lthumb -2.71167 54.4245
rfemur -31.1946 -1.09374 20.3638
rtibia 48.1457
rfoot -9.33832 -6.6692
rtoes -1.36809
lfemur 2.74378 -0.226831 -26.6899
ltibia 22.5416
lfoot -18.0137 -2.80627
ltoes 3.83281
105
root 0.541576 17.9415 -6.36338 -3.32495 -2.61239 1.40569
lowerback 11.093 -0.922227 -3.23522
upperback 0.294186 -1.55766 1.34425
thorax -5.79544 -0.658771 3.48594
lowerneck -18.0213 -2.49106 -1.65936
upperneck 20.4572 -3.03941 0.160142
head 9.4645 -1.53077 -0.075258
rclavicle -4.08751e-015 7.95139e-015
rhumerus -33.2624 -19.9138 -77.076
rradius 25.6886
rwrist 5.03173
rhand -20.501 21.6028
rfingers 7.12502
rthumb 5.85613 -8.2963
lclavicle -4.08751e-015 7.95139e-015
lhumerus -23.7124 -2.7306 80.4594
lradius 25.6864
lwrist 7.52739
lhand -29.4686 25.4557
lfingers 7.12502
lthumb -2.80425 55.417
rfemur -31.3045 -0.708523 20.3373
rtibia 45.2844
rfoot -9.47758 -6.97504
rtoes 0.763258
lfemur 3.31443 -0.219999 -26.6246
ltibia 21.8124
lfoot -18.0493 -3.00388
ltoes 3.48574
